<svg xmlns="http://www.w3.org/2000/svg" viewBox="0 0 64 64" width="64" height="64">
  <rect width="64" height="64" rx="16" fill="#000000"/>
  <rect x="2" y="2" width="60" height="60" rx="14" fill="none" stroke="#06b6d4" stroke-width="2" stroke-opacity="0.3"/>
  <!-- Hanger & Search Sparkle Icon -->
  <path d="M32 18 C30 18 28.5 19.5 28.5 21 C28.5 22.5 30 23.5 32 23.5 C34 23.5 35 24.5 35 26 C35 27.5 33.5 28.5 32 28.5" fill="none" stroke="#06b6d4" stroke-width="2.5" stroke-linecap="round"/>
  <path d="M18 42 L32 29 L46 42 C47 43 45 45 43 45 L21 45 C19 45 17 43 18 42 Z" fill="#06b6d4" opacity="0.15"/>
  <path d="M18 42 L32 29 L46 42" fill="none" stroke="#06b6d4" stroke-width="3" stroke-linecap="round" stroke-linejoin="round"/>
  <!-- Sparkle dot -->
  <circle cx="44" cy="20" r="3" fill="#22d3ee"/>
</svg>
